<svg width="35" height="30" viewBox="0 0 35 30" fill="none" xmlns="http://www.w3.org/2000/svg">
<path d="M25.4457 16.0466C23.9011 13.637 21.2705 12.1982 18.4086 12.1982C15.5468 12.1982 12.9162 13.637 11.3718 16.0466L7.64995 21.8528C7.03243 22.816 6.74751 23.929 6.82581 25.0706C6.90411 26.2124 7.33858 27.2756 8.08206 28.1461C8.82607 29.0158 9.80918 29.6103 10.9251 29.8654C12.0409 30.1205 13.1848 30.0115 14.2329 29.5509L14.3031 29.5197C16.9402 28.3837 19.9537 28.3941 22.5841 29.5509C23.2626 29.8492 23.9815 30 24.7069 30C25.1013 30 25.4981 29.9552 25.8911 29.8657C27.007 29.6108 27.9901 29.0164 28.7344 28.1464C29.4782 27.2767 29.9129 26.2132 29.9914 25.0711C30.07 23.929 29.7851 22.8163 29.1676 21.8526L25.4457 16.0466Z" fill="#71C6C6"/>
<path d="M31.6793 16.039C32.7865 15.6137 33.6277 14.7215 34.0477 13.5265C34.4476 12.3894 34.4149 11.1057 33.9553 9.9115C33.4954 8.7181 32.659 7.7439 31.5999 7.16802C30.4874 6.56333 29.2652 6.46486 28.1598 6.89094C25.9359 7.74599 24.9153 10.4942 25.8851 13.0185C26.6597 15.0276 28.4665 16.2959 30.2931 16.2959C30.7595 16.2959 31.2273 16.2132 31.6793 16.039Z" fill="#71C6C6"/>
<path d="M20.9426 11.4901C23.7228 11.4901 25.9847 8.91319 25.9847 5.74571C25.9847 2.57745 23.7228 0 20.9426 0C18.1627 0 15.9011 2.57745 15.9011 5.74571C15.9011 8.91319 18.1627 11.4901 20.9426 11.4901Z" fill="#71C6C6"/>
<path d="M8.91053 12.9014H8.91079C9.33844 13.0434 9.77474 13.1112 10.2092 13.1112C12.2367 13.1112 14.2126 11.6355 14.9666 9.36757C15.4008 8.06208 15.3722 6.6817 14.8862 5.48097C14.3776 4.22393 13.4351 3.31153 12.232 2.91163C11.0286 2.51174 9.72734 2.67856 8.56746 3.38093C7.45943 4.05187 6.61041 5.14052 6.17673 6.446C5.26145 9.19996 6.48785 12.0959 8.91053 12.9014Z" fill="#71C6C6"/>
<path d="M7.45102 12.231L7.45024 12.2302C5.533 10.8139 2.66565 11.4278 1.05795 13.5993C-0.548176 15.7719 -0.29703 18.6927 1.61733 20.11C2.31551 20.6272 3.14044 20.8744 3.98475 20.8744C5.45627 20.8744 6.98723 20.1233 8.01067 18.7422C9.61653 16.5696 9.36565 13.6488 7.45102 12.231Z" fill="#71C6C6"/>
</svg>
